<svg xmlns="http://www.w3.org/2000/svg">

  <symbol id="logo" viewBox="0 0 82 27">
    <title>logo</title>
    <path d="M3.73242 23.2402H16.248V26H0.480469V0.40625H3.73242V23.2402Z" fill="black" />
    <path d="M38.3262 14.6797C38.3145 15.5938 38.2324 16.5195 38.0801 17.457C37.9395 18.3828 37.7168 19.2793 37.4121 20.1465C37.1074 21.0137 36.7148 21.8223 36.2344 22.5723C35.7656 23.3223 35.2031 23.9785 34.5469 24.541C33.8906 25.1035 33.1348 25.5488 32.2793 25.877C31.4355 26.1934 30.4863 26.3516 29.4316 26.3516C28.377 26.3516 27.4219 26.1934 26.5664 25.877C25.7227 25.5488 24.9727 25.1035 24.3164 24.541C23.6602 23.9785 23.0918 23.3223 22.6113 22.5723C22.1309 21.8105 21.7324 20.9961 21.416 20.1289C21.1113 19.2617 20.8828 18.3652 20.7305 17.4395C20.5781 16.5137 20.4961 15.5938 20.4844 14.6797V11.7617C20.4961 10.8477 20.5723 9.92773 20.7129 9.00195C20.8652 8.06445 21.0938 7.16211 21.3984 6.29492C21.7148 5.42773 22.1074 4.61914 22.5762 3.86914C23.0566 3.10742 23.625 2.44531 24.2812 1.88281C24.9375 1.30859 25.6875 0.863281 26.5312 0.546875C27.3867 0.21875 28.3418 0.0546875 29.3965 0.0546875C30.4512 0.0546875 31.4062 0.21875 32.2617 0.546875C33.1172 0.863281 33.873 1.30273 34.5293 1.86523C35.1855 2.42773 35.748 3.08984 36.2168 3.85156C36.6973 4.60156 37.0898 5.41016 37.3945 6.27734C37.7109 7.14453 37.9395 8.04688 38.0801 8.98438C38.2324 9.92188 38.3145 10.8477 38.3262 11.7617V14.6797ZM35.1094 11.7266C35.0977 11.1172 35.0566 10.4844 34.9863 9.82812C34.916 9.16016 34.793 8.50391 34.6172 7.85938C34.4531 7.20312 34.2305 6.58203 33.9492 5.99609C33.668 5.39844 33.3164 4.87695 32.8945 4.43164C32.4727 3.97461 31.9746 3.61719 31.4004 3.35938C30.8262 3.08984 30.1582 2.95508 29.3965 2.95508C28.6465 2.95508 27.9844 3.08984 27.4102 3.35938C26.8359 3.62891 26.3379 3.99219 25.916 4.44922C25.4941 4.89453 25.1426 5.41602 24.8613 6.01367C24.5801 6.59961 24.3516 7.2207 24.1758 7.87695C24.0117 8.52148 23.8887 9.17773 23.8066 9.8457C23.7363 10.502 23.6953 11.1289 23.6836 11.7266V14.6797C23.6953 15.2773 23.7363 15.9102 23.8066 16.5781C23.8887 17.2461 24.0176 17.9082 24.1934 18.5645C24.3691 19.209 24.5977 19.8301 24.8789 20.4277C25.1602 21.0254 25.5117 21.5527 25.9336 22.0098C26.3555 22.4551 26.8535 22.8125 27.4277 23.082C28.002 23.3516 28.6699 23.4863 29.4316 23.4863C30.1934 23.4863 30.8613 23.3516 31.4355 23.082C32.0215 22.8125 32.5195 22.4551 32.9297 22.0098C33.3516 21.5527 33.6973 21.0312 33.9668 20.4453C34.248 19.8477 34.4707 19.2266 34.6348 18.582C34.8105 17.9258 34.9277 17.2637 34.9863 16.5957C35.0566 15.9277 35.0977 15.2891 35.1094 14.6797V11.7266Z" fill="black" />
    <path d="M59.8594 22.6426C58.7812 23.9082 57.5449 24.8457 56.1504 25.4551C54.7559 26.0645 53.2266 26.3633 51.5625 26.3516C50.5078 26.3398 49.5352 26.1816 48.6445 25.877C47.7656 25.5605 46.9746 25.1328 46.2715 24.5938C45.5684 24.043 44.9531 23.3984 44.4258 22.6602C43.8984 21.9219 43.4531 21.125 43.0898 20.2695C42.7383 19.4023 42.4688 18.5 42.2812 17.5625C42.1055 16.6133 42.0117 15.6582 42 14.6973V11.7266C42.0117 10.7773 42.0938 9.83398 42.2461 8.89648C42.4102 7.94727 42.6562 7.03906 42.9844 6.17188C43.3125 5.30469 43.7227 4.50195 44.2148 3.76367C44.707 3.01367 45.293 2.36914 45.9727 1.83008C46.6641 1.2793 47.4434 0.845703 48.3105 0.529297C49.1777 0.212891 50.1504 0.0546875 51.2285 0.0546875C52.4238 0.0546875 53.5254 0.242188 54.5332 0.617188C55.541 0.980469 56.4199 1.50781 57.1699 2.19922C57.9199 2.87891 58.5234 3.70508 58.9805 4.67773C59.4375 5.63867 59.7188 6.7168 59.8242 7.91211H56.6074C56.4785 7.17383 56.2793 6.49414 56.0098 5.87305C55.7402 5.24023 55.3828 4.70117 54.9375 4.25586C54.5039 3.81055 53.9824 3.46484 53.373 3.21875C52.7637 2.96094 52.0547 2.83203 51.2461 2.83203C50.4727 2.83203 49.7871 2.9668 49.1895 3.23633C48.5918 3.49414 48.0703 3.8457 47.625 4.29102C47.1797 4.73633 46.8105 5.25781 46.5176 5.85547C46.2246 6.44141 45.9844 7.0625 45.7969 7.71875C45.6094 8.375 45.4746 9.04297 45.3926 9.72266C45.3105 10.4023 45.2695 11.0586 45.2695 11.6914V14.6973C45.2812 15.3418 45.334 16.0098 45.4277 16.7012C45.5332 17.3809 45.6914 18.0488 45.9023 18.7051C46.1133 19.3613 46.3828 19.9824 46.7109 20.5684C47.0391 21.1543 47.4316 21.6699 47.8887 22.1152C48.3574 22.5605 48.8965 22.918 49.5059 23.1875C50.1152 23.4453 50.8066 23.5801 51.5801 23.5918C52.0254 23.6035 52.4883 23.5859 52.9688 23.5391C53.4609 23.4922 53.9355 23.3984 54.3926 23.2578C54.8496 23.1172 55.2773 22.9297 55.6758 22.6953C56.0742 22.4492 56.4082 22.1328 56.6777 21.7461L56.7129 15.998H51.5098V13.2559H59.8066L59.8594 22.6426Z" fill="black" />
    <path d="M81.5684 14.6797C81.5566 15.5938 81.4746 16.5195 81.3223 17.457C81.1816 18.3828 80.959 19.2793 80.6543 20.1465C80.3496 21.0137 79.957 21.8223 79.4766 22.5723C79.0078 23.3223 78.4453 23.9785 77.7891 24.541C77.1328 25.1035 76.377 25.5488 75.5215 25.877C74.6777 26.1934 73.7285 26.3516 72.6738 26.3516C71.6191 26.3516 70.6641 26.1934 69.8086 25.877C68.9648 25.5488 68.2148 25.1035 67.5586 24.541C66.9023 23.9785 66.334 23.3223 65.8535 22.5723C65.373 21.8105 64.9746 20.9961 64.6582 20.1289C64.3535 19.2617 64.125 18.3652 63.9727 17.4395C63.8203 16.5137 63.7383 15.5938 63.7266 14.6797V11.7617C63.7383 10.8477 63.8145 9.92773 63.9551 9.00195C64.1074 8.06445 64.3359 7.16211 64.6406 6.29492C64.957 5.42773 65.3496 4.61914 65.8184 3.86914C66.2988 3.10742 66.8672 2.44531 67.5234 1.88281C68.1797 1.30859 68.9297 0.863281 69.7734 0.546875C70.6289 0.21875 71.584 0.0546875 72.6387 0.0546875C73.6934 0.0546875 74.6484 0.21875 75.5039 0.546875C76.3594 0.863281 77.1152 1.30273 77.7715 1.86523C78.4277 2.42773 78.9902 3.08984 79.459 3.85156C79.9395 4.60156 80.332 5.41016 80.6367 6.27734C80.9531 7.14453 81.1816 8.04688 81.3223 8.98438C81.4746 9.92188 81.5566 10.8477 81.5684 11.7617V14.6797ZM78.3516 11.7266C78.3398 11.1172 78.2988 10.4844 78.2285 9.82812C78.1582 9.16016 78.0352 8.50391 77.8594 7.85938C77.6953 7.20312 77.4727 6.58203 77.1914 5.99609C76.9102 5.39844 76.5586 4.87695 76.1367 4.43164C75.7148 3.97461 75.2168 3.61719 74.6426 3.35938C74.0684 3.08984 73.4004 2.95508 72.6387 2.95508C71.8887 2.95508 71.2266 3.08984 70.6523 3.35938C70.0781 3.62891 69.5801 3.99219 69.1582 4.44922C68.7363 4.89453 68.3848 5.41602 68.1035 6.01367C67.8223 6.59961 67.5938 7.2207 67.418 7.87695C67.2539 8.52148 67.1309 9.17773 67.0488 9.8457C66.9785 10.502 66.9375 11.1289 66.9258 11.7266V14.6797C66.9375 15.2773 66.9785 15.9102 67.0488 16.5781C67.1309 17.2461 67.2598 17.9082 67.4355 18.5645C67.6113 19.209 67.8398 19.8301 68.1211 20.4277C68.4023 21.0254 68.7539 21.5527 69.1758 22.0098C69.5977 22.4551 70.0957 22.8125 70.6699 23.082C71.2441 23.3516 71.9121 23.4863 72.6738 23.4863C73.4355 23.4863 74.1035 23.3516 74.6777 23.082C75.2637 22.8125 75.7617 22.4551 76.1719 22.0098C76.5938 21.5527 76.9395 21.0312 77.209 20.4453C77.4902 19.8477 77.7129 19.2266 77.877 18.582C78.0527 17.9258 78.1699 17.2637 78.2285 16.5957C78.2988 15.9277 78.3398 15.2891 78.3516 14.6797V11.7266Z" fill="black" />
  </symbol>

</svg>